<?xml version="1.0" encoding="UTF-8" standalone="no"?>
<svg width="14px" height="16px" viewBox="0 0 14 16" version="1.1" xmlns="http://www.w3.org/2000/svg" xmlns:xlink="http://www.w3.org/1999/xlink" xmlns:sketch="http://www.bohemiancoding.com/sketch/ns">
    <!-- Generator: Sketch 3.1.1 (8761) - http://www.bohemiancoding.com/sketch -->
    <title>bag</title>
    <desc>Created with Sketch.</desc>
    <defs></defs>
    <g id="Page-1" stroke="none" stroke-width="1" fill="none" fill-rule="evenodd" sketch:type="MSPage">
        <g id="bag" sketch:type="MSLayerGroup" fill="#D02642">
            <g id="Page-1" sketch:type="MSShapeGroup">
                <g id="pizza33-homepage-iphone">
                    <g id="order">
                        <path d="M13,15 L1,15 L1,14.9750499 L12.9770402,14.9750499 L12.9770402,4 L13,4 L13,15 L13,15 Z M5,1.49481481 C5,1.22222222 5.223944,1 5.5008748,1 L8.4981255,1 C8.7740565,1 9,1.22222222 9,1.49481481 L9,3 L5,3 L5,1.49481481 L5,1.49481481 Z M12.9988593,3.01700617 L10.0114074,3.01700617 L10.0114074,1.49803775 C10.0114074,0.671774746 9.3386568,0 8.5111935,0 L5.5187509,0 C4.6922858,0 4.018537,0.671774746 4.018537,1.49803775 L4.018537,3.01700617 L1.00014259,3.01700617 C0.44716954,3.01700617 0,3.46352707 0,4.015698 L0,15.0013082 C0,15.5524824 0.44716954,16 1.00014259,16 L12.9988593,16 C13.5518323,16 14,15.5524824 14,15.0013082 L14,4.015698 C14,3.46352707 13.5518323,3.01700617 12.9988593,3.01700617 L12.9988593,3.01700617 L12.9988593,3.01700617 Z" id="Fill-1"></path>
                    </g>
                </g>
            </g>
        </g>
    </g>
</svg>