<?xml version="1.0" encoding="UTF-8" standalone="no"?>
<svg width="14px" height="16px" viewBox="0 0 14 16" version="1.1" xmlns="http://www.w3.org/2000/svg" xmlns:xlink="http://www.w3.org/1999/xlink" xmlns:sketch="http://www.bohemiancoding.com/sketch/ns">
    <!-- Generator: Sketch 3.1.1 (8761) - http://www.bohemiancoding.com/sketch -->
    <title>v-login</title>
    <desc>Created with Sketch.</desc>
    <defs></defs>
    <g id="Page-1" stroke="none" stroke-width="1" fill="none" fill-rule="evenodd" sketch:type="MSPage">
        <g id="v-login" sketch:type="MSLayerGroup" fill="#D02642">
            <g id="Page-1" sketch:type="MSShapeGroup">
                <path d="M14,8.00061538 L14,15.0769231 C14,15.5864615 13.552,16 13,16 L8,16 C7.448,16 7,15.5864615 7,15.0769231 C7,14.5673846 7.448,14.1538462 8,14.1538462 L12,14.1538462 L12,1.84615385 L8,1.84615385 C7.448,1.84615385 7,1.43261538 7,0.923076923 C7,0.413538462 7.448,0 8,0 L13,0 C13.552,0 14,0.413538462 14,0.923076923 L14,8.00061538 L14,8.00061538 Z M9.689375,7.25666667 C9.88,7.43933333 10,7.70466667 10,8 C10,8.29466667 9.88,8.56 9.689375,8.74333333 L6.564375,11.7433333 C6.39875,11.9026667 6.17875,12 5.9375,12 C5.419375,12 5,11.552 5,11 C5,10.7046667 5.12,10.44 5.310625,10.2566667 L5.31,10.2566667 L6.619375,9 L0.9375,9 C0.42,9 0,8.552 0,8 C0,7.44733333 0.42,7 0.9375,7 L6.619375,7 L5.31,5.74333333 L5.310625,5.74333333 C5.12,5.56 5,5.29533333 5,5 C5,4.44733333 5.419375,4 5.9375,4 C6.17875,4 6.39875,4.09733333 6.564375,4.25666667 L9.689375,7.25666667 L9.689375,7.25666667 Z" id="Imported-Layers-2"></path>
            </g>
        </g>
    </g>
</svg>