<?xml version="1.0" encoding="UTF-8" standalone="no"?>
<svg width="20px" height="15px" viewBox="0 0 20 15" version="1.1" xmlns="http://www.w3.org/2000/svg" xmlns:xlink="http://www.w3.org/1999/xlink" xmlns:sketch="http://www.bohemiancoding.com/sketch/ns">
    <!-- Generator: Sketch 3.1.1 (8761) - http://www.bohemiancoding.com/sketch -->
    <title>v-reg</title>
    <desc>Created with Sketch.</desc>
    <defs></defs>
    <g id="Page-1" stroke="none" stroke-width="1" fill="none" fill-rule="evenodd" sketch:type="MSPage">
        <g id="v-reg" sketch:type="MSLayerGroup" fill="#D02642">
            <g id="Page-1" sketch:type="MSShapeGroup">
                <path d="M13.125,11.718 L9.315,9.782 C10.528,8.759 10.938,6.75 10.938,5.625 L10.938,3.281 C10.938,1.729 8.933,0 7,0 C5.067,0 3.059,1.729 3.059,3.281 L3.059,5.625 C3.059,6.649 3.495,8.721 4.719,9.774 L0.875,11.718 C0.875,11.718 0,12.135 0,12.655 L0,14.062 C0,14.58 0.392,15 0.875,15 L13.125,15 C13.608,15 14,14.58 14,14.062 L14,12.655 C14,12.104 13.125,11.718 13.125,11.718 L13.125,11.718 L13.125,11.718 Z M2.771,13 L5.622,11.559 C6.218,11.257 6.624,10.678 6.705,10.015 C6.785,9.352 6.53,8.693 6.023,8.257 C5.426,7.743 5.059,6.378 5.059,5.625 L5.058,3.295 C5.105,2.94 6.034,2 7,2 C7.966,2 8.893,2.94 8.938,3.281 L8.938,5.625 C8.938,6.522 8.572,7.793 8.026,8.253 C7.513,8.685 7.252,9.346 7.329,10.012 C7.406,10.678 7.812,11.261 8.409,11.565 L11.234,13 L2.771,13 L2.771,13 Z M19,7 L17,7 L17,5 C17,4.448 16.552,4 16,4 C15.448,4 15,4.448 15,5 L15,7 L13,6.984 C12.448,6.984 12,7.432 12,7.984 C12,8.537 12.448,8.984 13,8.984 L15,9 L15,11 C15,11.552 15.448,12 16,12 C16.552,12 17,11.552 17,11 L17,9 L19,9 C19.552,9 20,8.552 20,8 C20,7.448 19.552,7 19,7 L19,7 L19,7 Z" id="Imported-Layers"></path>
            </g>
        </g>
    </g>
</svg>